<?xml version="1.0" encoding="UTF-8" standalone="no"?>
<svg
   xmlns:dc="http://purl.org/dc/elements/1.1/"
   xmlns:cc="http://creativecommons.org/ns#"
   xmlns:rdf="http://www.w3.org/1999/02/22-rdf-syntax-ns#"
   xmlns:svg="http://www.w3.org/2000/svg"
   xmlns="http://www.w3.org/2000/svg"
   viewBox="0 0 100 100"
   version="1.1"
   id="svg3030"
   height="100pt"
   width="100pt">
  <defs
     id="defs3032" />
  <metadata
     id="metadata3035">
    <rdf:RDF>
      <cc:Work
         rdf:about="">
        <dc:format>image/svg+xml</dc:format>
        <dc:type
           rdf:resource="http://purl.org/dc/dcmitype/StillImage" />
        <dc:title></dc:title>
      </cc:Work>
    </rdf:RDF>
  </metadata>
  <g
     transform="translate(0,-989.18639)"
     id="layer1">
    <path
       d="m 94.353337,1055.7217 c 0,0 -0.146483,-0.8987 -0.232119,-0.8906 l -16.307818,1.5734 c -1.297612,0.1253 -2.305414,1.1602 -2.396458,2.4605 l -0.448012,6.4214 -12.616452,0.9 -0.858164,-5.8196 c -0.191103,-1.2945 -1.3215,-2.2703 -2.629929,-2.2703 H 41.65243 c -1.307979,0 -2.438375,0.9758 -2.629479,2.2703 l -0.858615,5.8196 -12.616451,-0.9 -0.448012,-6.4214 c -0.09104,-1.3008 -1.098846,-2.3356 -2.396459,-2.4609 l -16.3159305,-1.573 c -0.084284,-0.01 -0.146032,0.8915 -0.230316,0.8915 l -0.022085,3.5291 13.8180605,2.2284 0.45252,6.4785 c 0.09149,1.3116 1.149777,2.3722 2.462263,2.4664 l 17.375565,1.2394 c 0.0658,0 0.130707,0.01 0.195611,0.01 1.305725,0 2.434318,-0.9762 2.625422,-2.2707 l 0.882953,-5.9882 h 12.622311 l 0.882953,5.9882 c 0.190653,1.294 1.320599,2.2703 2.628127,2.2703 0.064,0 0.128003,0 0.190653,-0.01 l 17.377818,-1.2394 c 1.312036,-0.094 2.370768,-1.1548 2.462264,-2.4664 l 0.452068,-6.4785 13.812202,-2.2383 z"
       style="fill:#ffffff;fill-opacity:1;fill-rule:nonzero;stroke:none;stroke-width:0.14436974"
       id="path80" />
    <path
       d="m 6.1569564,1029.1109 v 21.4153 2.7201 2.4753 c 0.048677,5e-4 0.097355,0 0.1455814,0.01 l 16.3141282,1.573 c 0.854558,0.082 1.524322,0.7703 1.583817,1.6266 l 0.502999,7.2016 14.230917,1.0154 0.980308,-6.6467 c 0.127102,-0.8617 0.866277,-1.5004 1.737962,-1.5004 h 17.211955 c 0.871235,0 1.61041,0.6387 1.737512,1.5004 l 0.980308,6.6467 14.231368,-1.0154 0.502548,-7.2016 c 0.05994,-0.8563 0.729259,-1.5437 1.583817,-1.6266 l 16.307818,-1.573 c 0.04823,0 0.09645,-0.01 0.145131,-0.01 v -2.1233 h 0.0068 v -24.4852 h 0.0604 c 2.161184,-2.7584 4.161013,-5.6651 6.078804,-8.766 -2.546991,-4.3359 -5.667751,-8.2107 -9.003503,-11.8006 -3.093716,1.5572 -6.098642,3.3213 -8.936803,5.1985 -1.420207,-1.4116 -3.019799,-2.5664 -4.590996,-3.7734 -1.543704,-1.2399 -3.283469,-2.149 -4.933541,-3.2082 0.491281,-3.6584 0.734217,-7.26011 0.832022,-11.01908 -4.257466,-2.14271 -8.797532,-3.56337 -13.38988,-4.58379 -1.833514,3.08155 -3.510179,6.41865 -4.9705,9.68097 -1.731652,-0.2894 -3.471417,-0.3967 -5.213435,-0.4174 v 0 c -0.01217,0 -0.02344,0 -0.0338,0 -0.01082,0 -0.02209,0 -0.0329,0 v 0 c -1.745174,0.021 -3.483587,0.128 -5.21569,0.4174 -1.459419,-3.26232 -3.135182,-6.59942 -4.971401,-9.68097 -4.590095,1.02042 -9.130611,2.44108 -13.387627,4.58379 0.09736,3.75897 0.340291,7.36068 0.832924,11.01908 -1.653227,1.0592 -3.390739,1.9683 -4.934893,3.2082 -1.568943,1.207 -3.17124,2.3618 -4.591898,3.7734 -2.83816,-1.8772 -5.842185,-3.6413 -8.9368028,-5.1985 -3.3357515,3.5899 -6.4547084,7.4647 -9.00260779,11.8006 1.91689649,3.1009 3.91807699,6.0076 6.07881099,8.766 z"
       style="fill:#478cbf;fill-opacity:1;fill-rule:nonzero;stroke:none;stroke-width:0.14436974"
       id="path84-6" />
    <path
       d="m 79.717585,1060.656 -0.505253,7.2399 c -0.06085,0.8725 -0.75495,1.5671 -1.627537,1.6297 l -17.377367,1.24 c -0.04237,0 -0.08474,0 -0.126652,0 -0.863572,0 -1.608606,-0.6337 -1.736159,-1.5009 l -0.996534,-6.7581 H 43.168999 l -0.996534,6.7581 c -0.133863,0.9095 -0.946955,1.5635 -1.862811,1.4964 l -17.377367,-1.24 c -0.872587,-0.063 -1.56669,-0.7572 -1.627537,-1.6297 l -0.505253,-7.2399 -14.6694641,-1.4143 c 0.00676,1.5766 0.027043,3.3037 0.027043,3.6476 0,15.4929 19.6534851,22.9397 44.0714921,23.0253 h 0.02975 0.0302 c 24.418007,-0.086 44.064731,-7.5324 44.064731,-23.0253 0,-0.3502 0.02118,-2.0701 0.0284,-3.6476 z"
       style="fill:#478cbf;fill-opacity:1;fill-rule:nonzero;stroke:none;stroke-width:0.14436974"
       id="path88-5" />
    <path
       d="m 36.963575,1039.9131 c 0,5.432 -4.401245,9.8324 -9.831475,9.8324 -5.427526,0 -9.830123,-4.4004 -9.830123,-9.8324 0,-5.4284 4.402597,-9.8265 9.830123,-9.8265 5.43023,0 9.831475,4.3981 9.831475,9.8265"
       style="fill:#ffffff;fill-opacity:1;fill-rule:nonzero;stroke:none;stroke-width:0.14436974"
       id="path92-5" />
    <path
       d="m 34.597934,1040.4963 c 0,3.603 -2.920191,6.5232 -6.525922,6.5232 -3.603927,0 -6.525921,-2.9202 -6.525921,-6.5232 0,-3.603 2.921994,-6.5259 6.525921,-6.5259 3.605731,0 6.525922,2.9229 6.525922,6.5259"
       style="fill:#414042;fill-opacity:1;fill-rule:nonzero;stroke:none;stroke-width:0.14436974"
       id="path96-2" />
    <path
       d="m 50.257703,1050.64 c -1.747878,0 -3.164479,-1.2881 -3.164479,-2.876 v -9.0509 c 0,-1.5865 1.416601,-2.876 3.164479,-2.876 1.747878,0 3.167634,1.2895 3.167634,2.876 v 9.0509 c 0,1.5879 -1.419756,2.876 -3.167634,2.876"
       style="fill:#ffffff;fill-opacity:1;fill-rule:nonzero;stroke:none;stroke-width:0.14436974"
       id="path100-1" />
    <path
       d="m 63.553474,1039.9131 c 0,5.432 4.401245,9.8324 9.832377,9.8324 5.427075,0 9.829221,-4.4004 9.829221,-9.8324 0,-5.4284 -4.402146,-9.8265 -9.829221,-9.8265 -5.431132,0 -9.832377,4.3981 -9.832377,9.8265"
       style="fill:#ffffff;fill-opacity:1;fill-rule:nonzero;stroke:none;stroke-width:0.14436974"
       id="path104-7" />
    <path
       d="m 65.919712,1040.4963 c 0,3.603 2.91929,6.5232 6.522316,6.5232 3.606632,0 6.525921,-2.9202 6.525921,-6.5232 0,-3.603 -2.919289,-6.5259 -6.525921,-6.5259 -3.603026,0 -6.522316,2.9229 -6.522316,6.5259"
       style="fill:#414042;fill-opacity:1;fill-rule:nonzero;stroke:none;stroke-width:0.14436974"
       id="path108-9" />
  </g>
</svg>
